<svg width="150" height="100" viewBox="0 0 150 100" fill="none" xmlns="http://www.w3.org/2000/svg">
<path d="M113.329 20H36.3932C36.0728 20 35.7518 20 35.432 20.0019C35.1616 20.0038 34.8918 20.0068 34.6221 20.0142C34.0338 20.0301 33.4404 20.0648 32.8595 20.1692C32.2693 20.2754 31.72 20.4487 31.1842 20.7215C30.6574 20.9894 30.1752 21.3397 29.7573 21.7578C29.3392 22.1759 28.9888 22.6574 28.721 23.1847C28.4481 23.7205 28.2747 24.27 28.1692 24.8606C28.0643 25.4418 28.0293 26.035 28.0135 26.6227C28.0062 26.8924 28.0031 27.1622 28.0013 27.4319C27.9995 27.7524 28.0001 28.0727 28.0001 28.3938V71.6068C28.0001 71.9279 27.9995 72.2477 28.0013 72.5688C28.0031 72.8385 28.0062 73.1083 28.0135 73.378C28.0293 73.9652 28.0643 74.5584 28.1692 75.1394C28.2747 75.7303 28.4481 76.2795 28.721 76.8153C28.9888 77.3427 29.3392 77.8247 29.7573 78.2422C30.1752 78.661 30.6574 79.0113 31.1842 79.2785C31.72 79.5521 32.2693 79.7254 32.8595 79.8315C33.4404 79.9353 34.0338 79.9706 34.6221 79.9865C34.8918 79.9926 35.1616 79.9963 35.432 79.9975C35.7518 80 36.0728 80 36.3932 80H113.329C113.649 80 113.97 80 114.29 79.9975C114.559 79.9963 114.829 79.9926 115.1 79.9865C115.687 79.9706 116.28 79.9353 116.863 79.8315C117.452 79.7254 118.001 79.5521 118.537 79.2785C119.065 79.0113 119.546 78.661 119.964 78.2422C120.382 77.8247 120.732 77.3427 121.001 76.8153C121.274 76.2795 121.447 75.7303 121.552 75.1394C121.657 74.5584 121.691 73.9652 121.707 73.378C121.715 73.1083 121.718 72.8385 121.72 72.5688C121.722 72.2477 121.722 71.9279 121.722 71.6068V28.3938C121.722 28.0727 121.722 27.7524 121.72 27.4319C121.718 27.1622 121.715 26.8924 121.707 26.6227C121.691 26.035 121.657 25.4418 121.552 24.8606C121.447 24.27 121.274 23.7205 121.001 23.1847C120.732 22.6574 120.382 22.1759 119.964 21.7578C119.546 21.3397 119.065 20.9894 118.537 20.7215C118.001 20.4487 117.452 20.2754 116.863 20.1692C116.28 20.0648 115.687 20.0301 115.1 20.0142C114.829 20.0068 114.559 20.0038 114.29 20.0019C113.97 20 113.649 20 113.329 20Z" fill="black"/>
<path d="M113.329 22.0001L114.275 22.0019C114.532 22.0037 114.788 22.0065 115.046 22.0135C115.494 22.0256 116.019 22.0499 116.508 22.1375C116.933 22.2141 117.29 22.3305 117.632 22.5047C117.969 22.6763 118.279 22.9012 118.549 23.171C118.82 23.4426 119.046 23.7526 119.219 24.0941C119.393 24.4335 119.508 24.7883 119.584 25.2165C119.672 25.7002 119.696 26.2262 119.708 26.6774C119.715 26.9321 119.719 27.1868 119.72 27.4475C119.722 27.7629 119.722 28.078 119.722 28.394V71.607C119.722 71.9229 119.722 72.2375 119.72 72.5596C119.719 72.8142 119.715 73.0689 119.708 73.324C119.696 73.7746 119.672 74.3003 119.583 74.7897C119.508 75.212 119.393 75.5669 119.219 75.908C119.045 76.2486 118.82 76.5583 118.55 76.8282C118.279 77.1 117.97 77.3242 117.628 77.4974C117.289 77.6707 116.933 77.787 116.512 77.8628C116.013 77.9517 115.467 77.9761 115.055 77.9873C114.796 77.9931 114.538 77.9966 114.274 77.9979C113.959 78.0003 113.644 78.0003 113.329 78.0003H36.3934C36.3892 78.0003 36.3851 78.0003 36.3808 78.0003C36.0698 78.0003 35.7581 78.0003 35.4413 77.9978C35.1831 77.9966 34.9254 77.9932 34.6762 77.9875C34.2552 77.9761 33.7083 77.9517 33.2134 77.8633C32.7889 77.787 32.4331 77.6707 32.089 77.4951C31.7505 77.3235 31.4423 77.0995 31.1704 76.8272C30.9007 76.5579 30.6765 76.2492 30.5032 75.9081C30.3297 75.5673 30.2136 75.2113 30.1373 74.784C30.0491 74.2956 30.0249 73.7719 30.0128 73.3244C30.0058 73.0682 30.0029 72.8121 30.0013 72.5574L30.0001 71.8055L30.0001 71.607V28.394L30.0001 28.1955L30.0013 27.4452C30.0029 27.1889 30.0058 26.9328 30.0128 26.6768C30.0249 26.2289 30.0491 25.705 30.138 25.2125C30.2137 24.789 30.3297 24.4331 30.5041 24.0906C30.6761 23.752 30.9006 23.443 31.1718 23.1719C31.4419 22.9017 31.7511 22.677 32.0918 22.5038C32.4322 22.3305 32.7887 22.2141 33.2132 22.1377C33.7023 22.0498 34.2273 22.0256 34.6768 22.0134C34.9331 22.0065 35.1894 22.0037 35.4437 22.0019L36.3934 22.0001H113.329" fill="white"/>
<path d="M53.5856 40.1805C54.388 39.1767 54.9326 37.829 54.789 36.4518C53.6142 36.5103 52.1807 37.2268 51.3508 38.2314C50.6056 39.0916 49.9461 40.4957 50.118 41.8152C51.4367 41.9295 52.7541 41.156 53.5856 40.1805Z" fill="black"/>
<path d="M54.774 42.073C52.859 41.9589 51.2307 43.1599 50.3162 43.1599C49.4012 43.1599 48.0007 42.1305 46.4861 42.1582C44.5146 42.1872 42.6853 43.3019 41.6849 45.0747C39.6272 48.6213 41.1418 53.8822 43.1429 56.7707C44.1146 58.1997 45.2857 59.7732 46.8289 59.7167C48.2868 59.6595 48.8583 58.7726 50.6306 58.7726C52.4015 58.7726 52.9163 59.7167 54.4597 59.6881C56.0602 59.6595 57.0608 58.2583 58.0325 56.8279C59.1473 55.1989 59.6036 53.6259 59.6323 53.5396C59.6036 53.511 56.5461 52.338 56.5177 48.8209C56.4889 45.876 58.9183 44.4752 59.0326 44.3883C57.6607 42.3593 55.5172 42.1305 54.774 42.073Z" fill="black"/>
<path d="M71.4486 38.0873C75.6108 38.0873 78.5092 40.9564 78.5092 45.1336C78.5092 49.3257 75.5512 52.2097 71.3442 52.2097H66.7357V59.5385H63.4061V38.0873H71.4486V38.0873ZM66.7357 49.4149H70.5562C73.4552 49.4149 75.105 47.8542 75.105 45.1485C75.105 42.4431 73.4552 40.897 70.5711 40.897H66.7357V49.4149V49.4149Z" fill="black"/>
<path d="M79.3792 55.0939C79.3792 52.3584 81.4753 50.6787 85.192 50.4705L89.473 50.2179V49.0139C89.473 47.2746 88.2985 46.234 86.3366 46.234C84.478 46.234 83.3184 47.1257 83.0363 48.5233H80.0037C80.1821 45.6986 82.5901 43.6175 86.4553 43.6175C90.246 43.6175 92.6689 45.6244 92.6689 48.761V59.5386H89.5917V56.9669H89.5177C88.611 58.7062 86.6337 59.8062 84.5824 59.8062C81.52 59.8062 79.3792 57.9034 79.3792 55.0939ZM89.473 53.6817V52.4479L85.6226 52.6856C83.7049 52.8195 82.6199 53.6668 82.6199 55.0047C82.6199 56.3722 83.7497 57.2642 85.4741 57.2642C87.7187 57.2642 89.473 55.7181 89.473 53.6817Z" fill="black"/>
<path d="M95.5741 65.2917V62.6901C95.8115 62.7494 96.3466 62.7494 96.6144 62.7494C98.1009 62.7494 98.9037 62.1252 99.394 60.5198C99.394 60.4899 99.6768 59.5684 99.6768 59.5535L94.028 43.8998H97.5061L101.461 56.625H101.52L105.475 43.8998H108.864L103.006 60.356C101.669 64.147 100.123 65.3659 96.8822 65.3659C96.6144 65.3659 95.8115 65.3361 95.5741 65.2917Z" fill="black"/>
</svg>
