<?xml version="1.0" encoding="utf-8"?>
<!-- Generator: Adobe Illustrator 25.4.1, SVG Export Plug-In . SVG Version: 6.00 Build 0)  -->
<svg version="1.1" id="Слой_1" xmlns="http://www.w3.org/2000/svg" xmlns:xlink="http://www.w3.org/1999/xlink" x="0px" y="0px"
	 viewBox="0 0 1001 1096.43" style="enable-background:new 0 0 1001 1096.43;" xml:space="preserve">
<style type="text/css">
	.st0{fill:#FFFFFF;}
	.st1{fill:#32A8FF;}
	.st2{fill:#002E8D;}
	.st3{fill:#29374A;}
	.st4{fill:#6682BB;}
	.st5{clip-path:url(#SVGID_00000094602206061117519270000003834940624146286475_);}
	.st6{opacity:0.15;}
	.st7{fill:#0051C6;}
</style>
<g>
	<g>
		<path class="st2" d="M131.88,976.62c0,35.12-25.95,59.91-62.23,59.91c-34.21,0-62.46-22.27-62.46-66.11v-21.58
			c0-42.24,20.44-72.94,58.33-80.05l55.97-6.94v22.5l-50.69,6.03c-22.96,4.59-36.97,19.27-38.35,49.8
			c8.72-17.45,25.72-22.08,41.34-22.08C107.31,918.09,131.88,941.73,131.88,976.62z M106.16,976.39c0-21.12-15.16-36.27-36.28-36.27
			c-21.36,0-36.51,15.15-36.51,36.27c0,21.58,15.15,36.5,36.51,36.5C91,1012.89,106.16,997.97,106.16,976.39z"/>
		<path class="st2" d="M268.51,983.51c0.09-3.75,0-7.35-0.25-10.82c-2.92-38.62-27.4-59.88-60.55-59.88
			c-35.41,0-60.81,26.85-60.81,62.22c0,37.17,26.52,61.74,62.66,61.74c26.71,0,47.95-15.62,55.31-35.68h-25.36
			c-5.84,7.92-15.74,13.88-29.73,13.88c-19.67,0-34.97-12.87-36.58-31.46H268.51z M173.21,963.54c1.35-16.97,15.77-29.37,34.5-29.37
			c19.45,0,33.15,12.62,33.84,29.37H173.21z"/>
		<path class="st2" d="M277.33,1011.74c9.19-0.46,18.83-5.51,18.83-24.56v-71.85h93.52v119.13h-25.95v-95.72h-42.08v48.89
			c0,33.05-19.52,47.97-44.55,47.52L277.33,1011.74z"/>
		<polygon class="st2" points="460.59,970.89 517.69,915.33 487.46,915.33 455.89,945.97 438.12,963.22 438.12,915.33 
			437.72,915.33 413.69,915.33 412.17,915.33 412.17,1034.47 413.69,1034.47 437.72,1034.47 438.12,1034.47 438.12,978.59 
			455.61,998.28 487.71,1034.47 517.9,1034.47 		"/>
		<path class="st2" d="M621.52,915.22l-3.16,17.7c-10.23-12.5-27.81-20-43.63-20c-0.19,0-0.36,0.02-0.55,0.02
			c-0.28,0-0.55-0.02-0.83-0.02c-17.2,0-31.21,6.29-41.23,16.53c-0.49,0.49-0.99,0.96-1.46,1.46c-0.28,0.31-0.54,0.64-0.81,0.96
			c-9.65,10.92-15.06,25.8-15.06,42.8c0,0.08,0.01,0.15,0.01,0.23c0,0.08-0.01,0.15-0.01,0.23c0,17,5.41,31.88,15.06,42.8
			c0.27,0.32,0.53,0.65,0.81,0.96c0.47,0.51,0.97,0.97,1.46,1.46c10.02,10.24,24.03,16.53,41.23,16.53c0.28,0,0.55-0.02,0.83-0.02
			c0.19,0,0.36,0.02,0.55,0.02c15.82,0,33.4-7.5,43.63-20v17.7h26.41v-0.23v-118.9v-0.23H621.52z M580.02,1013
			c-22.5,0-38.58-15.84-38.58-38.1c0-22.27,16.08-38.1,38.58-38.1c22.28,0,38.12,16.53,38.12,38.1S602.29,1013,580.02,1013z"/>
		<path class="st2" d="M667.21,915.22v0.23v172.54v0.23h26.41v-71.34c10.23,12.5,27.81,20,43.63,20c0.19,0,0.36-0.02,0.55-0.02
			c0.28,0,0.55,0.02,0.83,0.02c17.2,0,31.21-6.29,41.23-16.53c0.49-0.49,0.99-0.96,1.46-1.46c0.28-0.31,0.54-0.64,0.81-0.96
			c9.65-10.92,15.06-25.8,15.06-42.8c0-0.08-0.01-0.15-0.01-0.23c0-0.08,0.01-0.15,0.01-0.23c0-17-5.41-31.88-15.06-42.8
			c-0.27-0.32-0.53-0.65-0.81-0.96c-0.47-0.51-0.97-0.97-1.46-1.46c-10.02-10.24-24.03-16.53-41.23-16.53
			c-0.28,0-0.55,0.02-0.83,0.02c-0.19,0-0.36-0.02-0.55-0.02c-15.82,0-33.4,7.5-43.63,20l-3.16-17.7H667.21z M693.85,974.9
			c0-21.58,15.85-38.1,38.12-38.1c22.5,0,38.58,15.84,38.58,38.1c0,22.27-16.08,38.1-38.58,38.1
			C709.69,1013,693.85,996.47,693.85,974.9z"/>
		<path class="st2" d="M993.82,960.16v74.47H967.6v-67.8c0-21.61-11.04-31.26-25.75-31.26c-15.18,0-26.67,10.11-26.67,31.26v67.8
			h-26.21v-67.8c0-21.61-11.27-31.26-25.52-31.26c-15.4,0-26.9,10.11-26.9,31.26v67.8h-26.44V915.34h23.06l2.99,17.2
			c6.9-12.18,18.33-19.73,36.03-19.73c16.09,0,29.28,6.63,36.4,19.73c7.82-12.18,20.85-19.73,40.17-19.73
			C975.65,912.81,993.82,930.97,993.82,960.16z"/>
	</g>
	<g>
		<path class="st1" d="M459.81,610.8L335.03,733.16c-8.36,8.2-8.26,18.72-5.36,25.84c2.9,7.11,10.16,14.73,21.87,14.77l219.55,0.7
			c16.89,0.05,30.89-13.65,31.2-30.54c0.02-0.9,0.03-1.81,0.03-2.71c0.15-48.1-18.95-95.16-52.65-129.53
			C525.14,586.66,484.83,586.27,459.81,610.8z"/>
		<path class="st1" d="M316.54,517.75l-174.75-1.71c-11.71-0.12-19.08,7.4-22.06,14.48c-2.98,7.08-3.23,17.6,5.02,25.91
			l154.76,155.74c11.91,11.98,31.49,12.19,43.66,0.46c0.65-0.62,1.3-1.26,1.94-1.89c34.11-33.9,53.89-80.69,54.36-128.82
			C379.81,546.87,351.58,518.09,316.54,517.75z"/>
		<path class="st1" d="M147.92,493.13c0.9,0.02,1.81,0.03,2.71,0.03c48.1,0.15,95.16-18.95,129.53-52.65
			c25.02-24.53,25.41-64.84,0.88-89.86L158.68,225.87c-8.2-8.36-18.72-8.26-25.84-5.36c-7.11,2.89-14.73,10.16-14.77,21.87
			l-0.7,219.55C117.33,478.83,131.03,492.82,147.92,493.13z"/>
		<path class="st1" d="M181.1,215.94c33.9,34.11,80.69,53.89,128.82,54.36c35.04,0.34,63.82-27.88,64.16-62.92l1.71-174.75
			c0.12-11.71-7.4-19.08-14.48-22.06c-7.08-2.98-17.6-3.23-25.91,5.02L179.67,170.35c-11.98,11.91-12.19,31.49-0.46,43.66
			C179.83,214.65,180.47,215.3,181.1,215.94z"/>
		<path class="st1" d="M541.19,171.88L665.97,49.52c8.36-8.2,8.26-18.72,5.36-25.84c-2.89-7.11-10.16-14.73-21.87-14.77L429.9,8.22
			c-16.89-0.05-30.89,13.65-31.2,30.54c-0.02,0.9-0.03,1.81-0.03,2.71c-0.15,48.1,18.95,95.16,52.65,129.53
			C475.86,196.01,516.17,196.41,541.19,171.88z"/>
		<path class="st1" d="M684.46,264.93l174.75,1.71c11.71,0.12,19.08-7.4,22.06-14.48c2.98-7.08,3.23-17.6-5.02-25.91L721.49,70.51
			c-11.91-11.98-31.49-12.19-43.66-0.46c-0.65,0.62-1.3,1.26-1.93,1.89c-34.11,33.9-53.89,80.69-54.36,128.82
			C621.19,235.8,649.42,264.58,684.46,264.93z"/>
		<path class="st1" d="M853.08,289.55c-0.9-0.02-1.81-0.03-2.71-0.03c-48.1-0.15-95.16,18.95-129.53,52.65
			c-25.02,24.53-25.41,64.84-0.88,89.86l122.36,124.78c8.2,8.36,18.72,8.26,25.84,5.36c7.11-2.89,14.73-10.16,14.77-21.87
			l0.7-219.55C883.67,303.85,869.97,289.85,853.08,289.55z"/>
		<path class="st1" d="M819.9,566.74c-33.9-34.11-80.69-53.89-128.82-54.36c-35.04-0.34-63.82,27.88-64.16,62.92l-1.71,174.75
			c-0.12,11.71,7.4,19.08,14.48,22.06c7.08,2.98,17.6,3.23,25.91-5.02l155.74-154.76c11.98-11.91,12.19-31.49,0.46-43.66
			C821.17,568.03,820.53,567.38,819.9,566.74z"/>
	</g>
</g>
</svg>
