<svg version="1.2" xmlns="http://www.w3.org/2000/svg" viewBox="0 0 1022 257" width="1022" height="257">
	<title>bepaid-logotype main micro-svg</title>
	<style>
		.s0 { fill: #000000 } 
		.s1 { fill: #ff8e09 } 
	</style>
	<g id="Clip-Path">
		<g id="Layer">
			<path id="Layer" fill-rule="evenodd" class="s0" d="m274.2 217.3c-49.8 0-92.1-44.1-92.1-101.7l75-80.7c63.5-4 107.2 42.4 107.2 92.2 0 7.7-1.1 15.3-2.9 22.6h-128.2c8.1 14.2 23.2 23.8 40.7 23.8h67v43.7h-66.9zm-40.8-112.9h81.6c-7.9-14.4-23.2-24.1-40.8-24.1-17.6 0-32.9 9.7-40.8 24.1z"/>
			<path id="Layer" fill-rule="evenodd" class="s0" d="m45.3 53.7c8.1-6.4 25.8-13.7 44.6-13.7 49.6 0 90 40.4 90 90.1 0 49.7-40.4 90.1-90 90.1-49.6 0-89.9-40.4-89.9-90.1v-3.5l0.3-126.5h45zm90.9 76.3c0-25.7-20.8-46.5-46.4-46.5-25.7 0-46.4 20.8-46.4 46.5 0 25.8 20.7 46.6 46.4 46.6 25.6 0 46.4-20.8 46.4-46.6z"/>
			<path id="Layer" fill-rule="evenodd" class="s0" d="m1021.7 0l0.3 156.8-75.1 63.2c-67.3 0-104.8-40.3-104.8-90 0-49.8 40.2-90.1 90-90.1 18.8 0 36.5 7.3 44.6 13.6v-53.4h45zm-43.2 130c0-25.7-20.8-46.5-46.4-46.5-25.7 0-46.4 20.8-46.4 46.5 0 25.8 20.7 46.6 46.4 46.6 25.6 0 46.4-20.8 46.4-46.6z"/>
			<path id="Layer" fill-rule="evenodd" class="s0" d="m434.5 257h-45.1l-0.3-126.4v-3.5c0-49.8 40.4-90.1 90-90.1 49.6 0 89.9 40.3 89.9 90.1 0 49.7-40.3 90.1-89.9 90.1-18.8 0-36.6-7.3-44.6-13.7zm90.8-129.8c0-25.8-20.7-46.6-46.4-46.6-25.6 0-46.4 20.8-46.4 46.6 0 25.7 20.8 46.5 46.4 46.5 25.7 0 46.4-20.8 46.4-46.5z"/>
			<path id="Layer" fill-rule="evenodd" class="s0" d="m708.8 173.9l-45.2 45.2c-50.3 0-91.1-40.8-91.1-91.1 0-50.4 40.8-91.2 91.1-91.2 50.4 0 91.2 40.8 91.2 91.2v3.9l-0.3 85.4h-45.7zm2-45.8c0-26-21-47-47-47-26 0-47 21-47 47 0 26 21 47 47 47 26 0 47-21 47-47z"/>
			<path id="Layer" class="s0" d="m776.2 81.3h44.7v136h-44.7z"/>
			<path id="Layer" class="s1" d="m776.2 0.1h44.7v44.8h-44.7z"/>
		</g>
	</g>
</svg>