<svg width="150" height="100" viewBox="0 0 150 100" fill="none" xmlns="http://www.w3.org/2000/svg">
<g clip-path="url(#clip0)">
<path fill-rule="evenodd" clip-rule="evenodd" d="M113.536 20.0198H36.4135C36.0922 20.0198 35.7704 20.0198 35.4497 20.0215C35.179 20.0237 34.9088 20.0266 34.6381 20.0339C34.0483 20.0498 33.4535 20.0843 32.8711 20.1889C32.2797 20.2947 31.7291 20.4678 31.1922 20.7405C30.6637 21.0081 30.1807 21.3583 29.7613 21.7758C29.3424 22.1939 28.991 22.6748 28.7226 23.2021C28.449 23.7373 28.2753 24.286 28.1697 24.8761C28.0641 25.4571 28.0295 26.0494 28.0136 26.6367C28.0062 26.9065 28.0028 27.1758 28.0011 27.4451C27.9994 27.7653 28 28.0855 28 28.4063V71.5826C28 71.9033 27.9994 72.223 28.0011 72.5438C28.0028 72.8131 28.0062 73.0829 28.0136 73.3522C28.0295 73.9389 28.0641 74.5318 28.1697 75.1122C28.2753 75.7023 28.449 76.2511 28.7226 76.7868C28.991 77.3135 29.3424 77.795 29.7613 78.2125C30.1807 78.6306 30.6637 78.9808 31.1922 79.2478C31.7291 79.521 32.2797 79.6942 32.8711 79.8005C33.4535 79.9041 34.0483 79.9391 34.6381 79.955C34.9088 79.9612 35.179 79.9652 35.4497 79.9663C35.7704 79.9685 36.0922 79.9685 36.4135 79.9685H113.536C113.856 79.9685 114.178 79.9685 114.499 79.9663C114.769 79.9652 115.039 79.9612 115.311 79.955C115.9 79.9391 116.495 79.9041 117.078 79.8005C117.669 79.6942 118.22 79.521 118.757 79.2478C119.286 78.9808 119.767 78.6306 120.187 78.2125C120.606 77.795 120.957 77.3135 121.226 76.7868C121.5 76.2511 121.674 75.7023 121.779 75.1122C121.885 74.5318 121.919 73.9389 121.935 73.3522C121.942 73.0829 121.945 72.8131 121.947 72.5438C121.949 72.223 121.949 71.9033 121.949 71.5826V28.4063C121.949 28.0855 121.949 27.7653 121.947 27.4451C121.945 27.1758 121.942 26.9065 121.935 26.6367C121.919 26.0494 121.885 25.4571 121.779 24.8761C121.674 24.286 121.5 23.7373 121.226 23.2021C120.957 22.6748 120.606 22.1939 120.187 21.7758C119.767 21.3583 119.286 21.0081 118.757 20.7405C118.22 20.4678 117.669 20.2947 117.078 20.1889C116.495 20.0843 115.9 20.0498 115.311 20.0339C115.039 20.0266 114.769 20.0237 114.499 20.0215C114.178 20.0198 113.856 20.0198 113.536 20.0198Z" fill="#3C4043"/>
<path fill-rule="evenodd" clip-rule="evenodd" d="M113.536 22.018L114.485 22.0197C114.741 22.0214 114.998 22.0242 115.257 22.0316C115.706 22.0434 116.232 22.0678 116.723 22.1554C117.149 22.2318 117.506 22.3484 117.849 22.5221C118.188 22.6935 118.498 22.9186 118.768 23.1879C119.04 23.4595 119.266 23.7689 119.441 24.1101C119.614 24.4495 119.73 24.8037 119.807 25.2314C119.894 25.7151 119.918 26.2407 119.93 26.6916C119.938 26.9456 119.941 27.2002 119.942 27.461C119.945 27.7761 119.945 28.0906 119.945 28.4063V71.5826C119.945 71.8982 119.945 72.2128 119.942 72.5341C119.941 72.7887 119.938 73.0433 119.93 73.2985C119.918 73.7482 119.894 74.2738 119.805 74.7626C119.73 75.1846 119.614 75.5388 119.439 75.8799C119.266 76.2205 119.04 76.5294 118.77 76.7993C118.497 77.0708 118.188 77.2948 117.846 77.468C117.505 77.6411 117.149 77.7576 116.727 77.8329C116.226 77.9217 115.678 77.9466 115.266 77.9573C115.006 77.9636 114.748 77.9669 114.483 77.9681C114.168 77.9703 113.851 77.9703 113.536 77.9703H36.4135C36.4095 77.9703 36.4055 77.9703 36.401 77.9703C36.0894 77.9703 35.7766 77.9703 35.4593 77.9681C35.2005 77.9669 34.9423 77.9636 34.6925 77.9579C34.2702 77.9466 33.7219 77.9217 33.2258 77.8334C32.8001 77.7576 32.4437 77.6411 32.0986 77.4657C31.7592 77.2943 31.4504 77.0703 31.178 76.7981C30.9078 76.5294 30.683 76.2211 30.5093 75.8799C30.3351 75.5394 30.2187 75.1841 30.1421 74.7569C30.0541 74.2687 30.0297 73.746 30.0172 73.2985C30.0104 73.0427 30.0076 72.7865 30.0059 72.5324L30.0047 71.7811V28.2083L30.0059 27.4587C30.0076 27.2024 30.0104 26.9467 30.0172 26.691C30.0297 26.2429 30.0541 25.7196 30.1432 25.2274C30.2187 24.8048 30.3351 24.449 30.5099 24.1067C30.6824 23.7684 30.9078 23.4595 31.1791 23.1891C31.4498 22.9186 31.7603 22.6946 32.1014 22.5215C32.4426 22.3478 32.8001 22.2318 33.2258 22.1554C33.7163 22.0678 34.2424 22.0434 34.6931 22.0316C34.9496 22.0242 35.2068 22.0214 35.4616 22.0197L36.4135 22.018H113.536Z" fill="#FFFFFE"/>
<path d="M73.232 51.3785V59.9228H70.5553V38.8312H77.6543C79.3667 38.7976 81.0292 39.4536 82.2429 40.6646C84.6702 42.952 84.8198 46.8036 82.5421 49.2761C82.4424 49.377 82.3426 49.4779 82.2429 49.5789C80.996 50.773 79.4664 51.3785 77.6543 51.3785H73.232ZM73.232 41.4214V48.7883H77.7208C78.7183 48.822 79.6826 48.4183 80.3642 47.6951C81.7607 46.2318 81.7275 43.8771 80.2811 42.4642C79.5995 41.7915 78.6851 41.4214 77.7208 41.4214H73.232Z" fill="#3C4043"/>
<path d="M90.3394 45.0208C92.3178 45.0208 93.8806 45.559 95.0277 46.6186C96.1748 47.6782 96.7401 49.1584 96.7401 51.0253V59.9228H94.1798V57.9213H94.0634C92.9495 59.5696 91.4865 60.3937 89.6411 60.3937C88.0783 60.3937 86.7483 59.9228 85.7009 58.9809C84.6702 58.1063 84.0883 56.8112 84.1215 55.4488C84.1215 53.9519 84.6868 52.7745 85.8007 51.8831C86.9146 50.9917 88.4108 50.5544 90.2729 50.5544C91.8689 50.5544 93.1657 50.8571 94.1964 51.429V50.8067C94.1964 49.8816 93.7974 49.007 93.0992 48.4015C92.3843 47.7623 91.4699 47.4091 90.5223 47.4091C89.026 47.4091 87.8456 48.0483 86.9811 49.3265L84.6203 47.8296C85.8838 45.9627 87.7957 45.0208 90.3394 45.0208ZM86.8813 55.4993C86.8813 56.2057 87.2138 56.8616 87.7625 57.2653C88.361 57.7363 89.0925 57.9885 89.8406 57.9717C90.9711 57.9717 92.0518 57.5176 92.8498 56.7103C93.7309 55.8693 94.1798 54.877 94.1798 53.7332C93.3486 53.0605 92.1848 52.7241 90.6885 52.7409C89.6079 52.7409 88.6935 53.01 87.962 53.5314C87.2471 54.0528 86.8813 54.7088 86.8813 55.4993Z" fill="#3C4043"/>
<path fill-rule="evenodd" clip-rule="evenodd" d="M111.437 45.4917L102.492 66.2637H99.7326L103.058 58.9977L97.189 45.4917H100.098L104.338 55.8525H104.388L108.527 45.4917H111.437Z" fill="#3C4043"/>
<path fill-rule="evenodd" clip-rule="evenodd" d="M62.4088 49.5284C62.4088 48.7042 62.3423 47.8801 62.2093 47.0727H50.9208V51.7317H57.388C57.122 53.2286 56.2575 54.5742 54.994 55.4152V58.4427H58.851C61.1121 56.3402 62.4088 53.2286 62.4088 49.5284Z" fill="#4285F4"/>
<path fill-rule="evenodd" clip-rule="evenodd" d="M50.9208 61.3692C54.1461 61.3692 56.8726 60.2928 58.851 58.4427L54.994 55.4152C53.9133 56.1552 52.5334 56.5757 50.9208 56.5757C47.7952 56.5757 45.1518 54.4396 44.2042 51.5803H40.2307V54.7087C42.259 58.7959 46.3987 61.3692 50.9208 61.3692Z" fill="#34A853"/>
<path fill-rule="evenodd" clip-rule="evenodd" d="M44.2042 51.5803C43.7054 50.0834 43.7054 48.4519 44.2042 46.9382V43.8266H40.2307C38.5183 47.2409 38.5183 51.2776 40.2307 54.6919L44.2042 51.5803Z" fill="#FBBC04"/>
<path fill-rule="evenodd" clip-rule="evenodd" d="M50.9208 41.9428C52.6332 41.9092 54.2791 42.5651 55.5094 43.7593L58.9342 40.2945C56.7563 38.2426 53.8967 37.1157 50.9208 37.1493C46.3987 37.1493 42.259 39.7395 40.2307 43.8266L44.2042 46.955C45.1518 44.0789 47.7952 41.9428 50.9208 41.9428Z" fill="#EA4335"/>
</g>
<defs>
<clipPath id="clip0">
<rect width="94" height="60" fill="white" transform="translate(28 20)"/>
</clipPath>
</defs>
</svg>
