<svg width="150" height="100" viewBox="0 0 150 100" fill="none" xmlns="http://www.w3.org/2000/svg">
<g clip-path="url(#clip0_3016_91976)">
<path d="M96.2274 49.3084V64.0253H105.195V55.7471H114.221C118.935 55.7471 122.959 53.0739 124.511 49.3084H96.2274V49.3084Z" fill="#006848"/>
<path d="M95.825 36C95.8537 36.7473 95.9687 37.4947 96.1411 38.1845C96.1699 38.3283 96.2274 38.5007 96.2561 38.6444C96.2849 38.7019 96.2849 38.7594 96.3136 38.8456C97.9233 43.9333 102.666 47.6125 108.271 47.6125H124.828C124.943 47.0377 125 46.4628 125 45.8592C125 42.9848 123.764 40.3978 121.781 38.587C120.027 36.9773 117.699 36 115.112 36H95.825V36Z" fill="url(#paint0_linear_3016_91976)"/>
<path d="M80.332 38.9606L74.0658 52.5565H73.4335V36H64.5228V64.0253H72.0825C74.0658 64.0253 75.8767 62.8755 76.7103 61.0647L82.9764 47.4688H83.6088V64.0253H92.5194V36H84.9598C82.9764 36 81.1656 37.1498 80.332 38.9606ZM38.7971 39.6792L42.5338 52.5565H43.1661L46.8741 39.6792C47.5065 37.4947 49.4898 36 51.7606 36H60.6712V64.0253H51.7606V47.4688H51.1282L46.0118 64.0253H39.6594L34.543 47.4688H33.9106V64.0253H25V36H33.9106C36.1814 36 38.1647 37.4947 38.7971 39.6792Z" fill="#006848"/>
</g>
<defs>
<linearGradient id="paint0_linear_3016_91976" x1="95.8201" y1="41.8097" x2="124.991" y2="41.8097" gradientUnits="userSpaceOnUse">
<stop stop-color="#02AFFF"/>
<stop offset="1" stop-color="#1F5BDE"/>
</linearGradient>
<clipPath id="clip0_3016_91976">
<rect width="100" height="28.0253" fill="white" transform="translate(25 36)"/>
</clipPath>
</defs>
</svg>
