<svg width="200" height="100" viewBox="0 0 200 100" fill="none" xmlns="http://www.w3.org/2000/svg">
<g clip-path="url(#clip0)">
<path d="M37.8077 51.875C38.2404 58.7981 44.1538 64.4231 51.3654 64.4231C55.5481 64.4231 59.2981 62.5481 61.75 59.6635C61.75 59.6635 61.3173 59.9519 60.7404 59.6635C60.7404 59.6635 42.4231 52.7404 38.6731 51.4423H38.3846C37.9519 51.4423 37.8077 51.7308 37.8077 51.875ZM43.7211 40.1923L62.7596 48.9904C64.4904 49.8558 64.6346 48.7019 64.6346 48.7019C63.4808 42.5 57.8558 37.8846 51.3654 37.8846C48.4808 37.8846 45.8846 38.75 43.7211 40.1923Z" fill="#0459A9"/>
<path fill-rule="evenodd" clip-rule="evenodd" d="M62.6154 54.6154C62.6154 54.6154 33.3365 41.4904 33.0481 41.3462C32.1827 41.0577 31.0288 41.7789 31.75 42.7885C31.8942 42.9327 34.2019 46.25 34.2019 46.25C34.2019 46.25 33.4808 45.0962 33.625 44.6635C33.625 44.375 34.0577 44.0865 34.2019 44.2308C34.4904 44.375 62.0385 56.2019 62.0385 56.2019C63.0481 56.6346 63.9135 56.3462 64.2019 55.625C64.4904 55.0481 64.6346 54.3269 64.7788 53.75C64.4904 53.8942 63.9135 55.1923 62.6154 54.6154ZM64.7788 49.5673C64.7788 49.8558 64.4904 51.2981 62.9038 50.5769C62.6154 50.5769 29.875 35.4327 29.4423 35.1442C28.8654 34.8558 27.4231 35.2885 28.1442 36.7308L30.7404 40.9135C30.7404 40.9135 30.3077 39.9038 30.1634 39.0385C30.1634 38.75 30.4519 38.4615 30.8846 38.6058C30.8846 38.6058 62.7596 52.5962 63.0481 52.7404C63.7692 53.0289 64.7788 52.8846 64.9231 52.0192V51.1539C64.7788 50.5769 64.7788 50.1442 64.7788 49.5673ZM61.75 57.6442C61.6058 57.6442 36.6538 47.1154 36.3654 47.1154C35.5 46.8269 34.9231 47.5481 35.5 48.4135C35.5 48.5577 37.5192 51.0096 37.5192 51.0096C37.5192 51.0096 37.0865 50.2885 37.0865 50C37.0865 49.7115 37.2308 49.2789 37.9519 49.5673C38.5288 49.8558 61.0288 58.9423 61.0288 58.9423C61.75 59.2308 62.3269 59.2308 62.6154 58.7981C63.0481 58.2212 63.4808 57.5 63.7692 56.7789C63.3365 57.0673 62.7596 58.0769 61.75 57.6442Z" fill="#EF3627"/>
<path d="M150.308 46.6827V47.6923C150.74 47.8365 151.029 47.9808 151.173 48.4135C151.317 48.7019 151.462 49.5673 151.462 51.0096V55.0481H148V51.0096C148 49.7115 148 48.8461 148.288 48.4135C148.433 48.125 148.721 47.8365 149.154 47.6923V46.6827H143.385V47.6923C143.817 47.6923 144.25 47.9808 144.394 48.4135C144.538 48.7019 144.538 49.5673 144.538 50.8654V60.5288C144.538 61.9711 144.538 62.6923 144.394 62.9808C144.106 63.4135 143.817 63.5577 143.385 63.7019V64.7115H149.01V63.7019C148.577 63.5577 148.288 63.4135 148.144 62.9808C148 62.6923 147.856 61.8269 147.856 60.3846V56.0577H151.317V60.3846C151.317 61.6827 151.317 62.5481 151.029 62.9808C150.885 63.2692 150.596 63.5577 150.163 63.7019V64.7115H155.788V63.7019C155.356 63.7019 154.923 63.4135 154.779 62.9808C154.635 62.6923 154.49 61.8269 154.49 60.5288V51.0096C154.49 49.5673 154.49 48.8461 154.779 48.5577C155.067 48.125 155.356 47.8365 155.788 47.8365V46.8269H150.308V46.6827V46.6827ZM86.7019 38.6058L82.2308 55.7692L77.6154 38.75H70.9808V39.7596H71.5577C71.9904 39.7596 72.4231 39.9038 72.7115 40.1923C73 40.4808 73.1442 40.7692 73.2885 41.0577C73.4327 41.3461 73.4327 42.2115 73.4327 43.5096V61.3942C73.2885 61.9711 73.1442 62.5481 73 62.8365C72.8558 63.125 72.5673 63.4135 72.2789 63.7019C71.9904 63.8461 71.7019 63.9904 71.2692 63.9904H71.125V65H77.0385V63.9904C76.3173 63.9904 75.7404 63.8461 75.4519 63.4135C75.1635 62.9808 74.875 62.5481 74.7308 61.8269V42.5L80.6442 64.5673H81.3654L87.1346 42.7885V59.8077C87.1346 61.1058 87.1346 61.9711 86.9904 62.2596C86.8462 62.6923 86.7019 62.9808 86.5577 63.125C86.2692 63.4135 85.8365 63.5577 85.4038 63.5577H84.8269V64.5673H93.3365V63.5577H92.7596C92.3269 63.5577 91.8942 63.4135 91.6058 63.2692C91.3173 62.9808 91.1731 62.6923 91.0289 62.4038C91.0289 62.1154 90.8846 61.25 90.8846 59.9519V43.2211C90.8846 41.9231 90.8846 41.2019 91.0289 40.7692C91.1731 40.3365 91.3173 40.0481 91.4615 39.9038C91.75 39.6154 92.1827 39.4711 92.6154 39.4711H93.1923V38.4615L86.7019 38.6058ZM158.385 38.6058V39.6154C158.962 39.7596 159.25 39.9038 159.394 40.1923C159.538 40.4808 159.683 41.3461 159.683 42.7885V60.3846C159.683 61.8269 159.683 62.5481 159.394 62.8365C159.25 63.2692 158.817 63.4135 158.385 63.5577V64.5673H164.154V63.5577C163.577 63.4135 163.288 63.2692 163.144 62.9808C163 62.6923 162.856 62.4038 162.856 60.3846V57.5L163.577 56.3461L165.74 61.25C166.029 62.1154 166.317 62.5481 166.317 62.8365C166.317 62.9808 166.317 63.125 166.173 63.4135C166.029 63.5577 165.885 63.7019 165.596 63.7019V64.7115H171.365V63.7019C170.933 63.7019 170.644 63.4135 170.356 62.9808C170.212 62.6923 169.49 61.5385 168.481 59.0865L165.885 52.8846C165.885 52.8846 168.337 48.9904 169.202 48.2692C169.49 47.9808 170.067 47.6923 170.5 47.6923V46.6827H165.452V47.6923C167.183 47.6923 167.038 49.1346 166.606 49.8558C166.462 50.1442 163 55.4808 163 55.4808V38.6058H158.385ZM95.7885 38.6058V45.6731H96.7981C96.9423 43.7981 96.7981 42.2115 97.6635 41.2019C98.2404 40.4808 98.9615 40.0481 99.9712 40.0481H101.125V59.8077C101.125 61.1058 101.125 61.9711 100.981 62.2596C100.837 62.6923 100.692 62.9808 100.548 63.125C100.26 63.4135 99.8269 63.5577 99.3942 63.5577H98.8173V64.5673H107.327V63.7019H106.75C106.317 63.7019 105.885 63.5577 105.596 63.4135C105.308 63.125 105.163 62.8365 105.019 62.5481C105.019 62.2596 104.875 61.3942 104.875 60.0961V40.1923H106.029C107.183 40.1923 107.904 40.4808 108.337 41.3461C109.058 42.3558 108.913 43.7981 109.202 45.8173H110.212V38.75L95.7885 38.6058ZM119.154 62.5481C118.865 62.2596 118.865 61.6827 118.865 61.1058V47.8365C120.019 47.8365 121.029 47.9808 121.606 48.4135C122.183 48.8461 122.76 49.4231 123.048 50.4327C123.913 52.8846 123.913 58.0769 123.192 60.5288C122.904 61.3942 122.471 61.9711 121.894 62.5481C121.317 62.9808 120.74 63.2692 120.163 63.2692C119.731 63.125 119.442 62.9808 119.154 62.5481ZM112.808 38.6058V39.6154C113.529 39.6154 114.106 39.7596 114.394 39.9038C114.683 40.1923 114.827 40.4808 114.971 40.7692C115.115 41.0577 115.115 41.7788 115.115 43.0769V59.6635C115.115 61.1058 115.115 61.9711 114.971 62.2596C114.827 62.5481 114.683 62.8365 114.394 63.125C114.106 63.4135 113.673 63.4135 112.808 63.4135V64.4231H121.029C123.337 64.4231 125.067 63.5577 126.221 62.1154C128.24 59.5192 128.385 51.4423 126.365 48.8461C124.635 46.5385 121.462 46.25 118.721 46.25V40.0481H121.894C123.048 40.0481 123.769 40.3365 124.202 41.2019C124.923 42.2115 124.779 43.6538 125.067 45.6731H126.077V38.6058H112.808ZM133.721 58.2211C134.154 57.2115 135.308 55.4808 136.317 54.6154V60.5288C135.885 61.1058 135.308 61.5385 134.875 61.5385C133.721 61.3942 132.856 60.0961 133.721 58.2211ZM133.288 46.8269C132.423 47.2596 131.846 47.9808 131.413 48.8461C130.981 49.7115 130.837 50.4327 130.692 51.5865C130.692 53.0288 131.558 53.75 132.567 53.75C133.433 53.75 134.298 53.0288 134.298 52.0192C134.298 51.7308 134.154 51.4423 134.01 51.1538C133.721 50.7211 132.567 49.7115 133.721 48.2692C134.01 47.9808 134.442 47.6923 135.019 47.6923C135.885 47.6923 136.173 48.4135 136.462 48.9904C136.606 49.2788 136.606 50.1442 136.606 51.5865V53.3173C134.154 55.0481 132.567 56.6346 131.846 57.6442C130.837 58.6538 130.404 59.6635 130.404 60.9615C130.404 62.9808 131.558 64.7115 133.288 64.7115C135.019 64.7115 136.029 63.5577 136.462 61.8269C136.462 62.8365 136.75 63.5577 137.183 63.9904C137.471 64.4231 138.048 64.7115 138.625 64.7115C139.202 64.7115 139.923 64.5673 140.356 64.1346C140.788 63.7019 141.221 63.125 141.51 62.1154L140.788 61.5385C140.5 61.9711 140.067 61.9711 140.067 61.8269C139.923 61.6827 139.923 61.5385 139.923 61.3942V53.3173C139.923 51.2981 139.923 50.1442 139.779 49.5673C139.49 47.9808 138.481 46.1058 136.029 46.1058C134.875 46.1058 134.154 46.3942 133.288 46.8269Z" fill="#0459A9"/>
</g>
<defs>
<clipPath id="clip0">
<rect width="143.365" height="30" fill="white" transform="translate(28 35)"/>
</clipPath>
</defs>
</svg>
