<svg version="1.2" xmlns="http://www.w3.org/2000/svg" viewBox="0 0 232 84" width="232" height="84">
	<title>template</title>
	<defs>
		<clipPath clipPathUnits="userSpaceOnUse" id="cp1">
			<path d="m0 14.44c0-7.97 6.47-14.44 14.44-14.44h54.88c7.97 0 14.44 6.47 14.44 14.44v55.01c0 7.98-6.47 14.44-14.44 14.44h-54.88c-7.97 0-14.44-6.46-14.44-14.44z"/>
		</clipPath>
	</defs>
	<style>
		.s0 { opacity: .9;fill: #000000 } 
		.s1 { fill: #ffffff } 
	</style>
	<g id="япэй">
		<path id="Layer" class="s0" d="m148.1 9.5v63.3h-11.1v-54.7h-19.6v54.7h-10.9v-63.3zm18.3 64.2q-7.2 0-11.1-2.9v-8.8q2.1 1.5 4.6 2.2 2.4 0.9 5.8 0.9 5.2 0 8-3.1 2.4-3 3.1-8.4h-15.8v-8.6h15.8q-1.6-10.4-10.8-10.4-2.7 0-5.7 0.9-2.7 0.9-4.3 2v-9.2q1.8-0.9 4.8-1.6 2.7-0.7 7-0.7 5 0 8.8 1.8 0.9 0.5 1.8 0.9 0.9 0.7 1.6 1.1 0.9 0.7 1.6 1.4 0.6 0.9 1.3 1.6 2.7 3.2 4.1 7.4 1.4 4.6 1.4 9.8 0 11.5-5.5 17.6-5.4 6.1-16.5 6.1zm47.5-52.7q-6.6 0-9.9-3.4-3.2-3.1-3.2-8.1h9q0 2.5 1.2 3.4 1.1 1.1 2.9 1.1 1.8 0 2.7-1.1 1.1-1.1 1.1-3.4h9.1q0 2.5-0.9 4.5-0.9 2.1-2.5 3.6-1.6 1.6-3.8 2.5-2.5 0.9-5.7 0.9zm-7.9 5.9v28.5l16.5-28.5h9.5v45.9h-10.4v-28.3l-16.5 28.3h-9.5v-45.9z"/>
		<g id="Clip-Path: Clip-Path" clip-path="url(#cp1)">
			<g id="Clip-Path">
				<g id="Layer">
					<path id="Layer" class="s0" d="m41.8 83.9c-23.1 0-41.8-18.8-41.8-42 0-23.2 18.7-41.9 41.8-41.9 23.2 0 41.9 18.7 41.9 41.9 0 23.2-18.7 42-41.9 42z"/>
					<path id="Layer" class="s1" d="m47.7 67.2h8.8v-50.5h-12.6c-12.9 0-19.7 6.8-19.7 16.3 0 7.9 3.8 12.5 10.4 17.2l-11.5 17h9.5l12.6-19-4.3-3c-5.4-3.6-7.9-6.5-7.9-12.6 0-5.5 3.6-9.1 10.9-9.1h3.8z"/>
				</g>
			</g>
		</g>
	</g>
</svg>